<svg xmlns="http://www.w3.org/2000/svg" style="display: none;">
  <defs>
    <!-- Acceso / Login -->
    <symbol id="icon-acceso" viewBox="0 0 512 512">
      <path fill="currentColor" d="M416 448h-84c-6.6 0-12-5.4-12-12v-40c0-6.6 5.4-12 12-12h84c17.7 0 32-14.3 32-32V160c0-17.7-14.3-32-32-32h-84c-6.6 0-12-5.4-12-12V76c0-6.6 5.4-12 12-12h84c53 0 96 43 96 96v192c0 53-43 96-96 96zm-47-201L201 79c-15-15-41-4.5-41 17v96H24c-13.3 0-24 10.7-24 24v96c0 13.3 10.7 24 24 24h136v96c0 21.5 26 32 41 17l168-168c9.3-9.4 9.3-24.6 0-34z"/>
    </symbol>

    <!-- Actividades 1 (Paper plane) -->
    <symbol id="icon-actividades1" viewBox="0 0 448 512">
      <path fill="currentColor" d="M446.7 98.6l-67.6 318.8c-5.1 22.5-18.4 28.1-37.3 17.5l-103-75.9-49.7 47.8c-5.5 5.5-10.1 10.1-20.7 10.1l7.4-104.9 190.9-172.5c8.3-7.4-1.8-11.5-12.9-4.1L117.8 284 16.2 252.2c-22.1-6.9-22.5-22.1 4.6-32.7L418.2 66.4c18.4-6.9 34.5 4.1 28.5 32.2z"/>
    </symbol>

    <!-- Actividades 2 (Exchange) -->
    <symbol id="icon-actividades2" viewBox="0 0 32 32">
      <path fill="currentColor" d="M29.8,20.4l-3-4C26.6,16.1,26.3,16,26,16h-9v-2h9c0.6,0,1-0.4,1-1V5c0-0.6-0.4-1-1-1h-9V2c0-0.6-0.4-1-1-1s-1,0.4-1,1v2H6C5.7,4,5.4,4.1,5.2,4.4l-3,4c-0.3,0.4-0.3,0.8,0,1.2l3,4C5.4,13.9,5.7,14,6,14h9v2H6c-0.6,0-1,0.4-1,1v8c0,0.6,0.4,1,1,1h9v3h-1c-0.6,0-1,0.4-1,1s0.4,1,1,1h4c0.6,0,1-0.4,1-1s-0.4-1-1-1h-1v-3h9c0.3,0,0.6-0.1,0.8-0.4l3-4C30.1,21.2,30.1,20.8,29.8,20.4z"/>
    </symbol>

    <!-- Actividades 3 (Circle smiley) -->
    <symbol id="icon-actividades3" viewBox="0 0 64 64">
      <path fill="currentColor" d="M32,0C14.328,0,0,14.328,0,32s14.328,32,32,32s32-14.328,32-32S49.672,0,32,0z M52.812,20.078c-2.293,1.973-4.105,3.762-7.457,3.887c-2.562,0.094-4.445,0.105-6.359-1.598c-2.727-2.477-0.859-5.777-0.758-9.504C38.273,11.43,38.512,10.18,38.824,9C44.789,10.766,49.773,14.789,52.812,20.078z M9.867,41.289c2.09-2.031,5.508-3.109,7.949-5.816c2.492-2.785,2.41-7.836,6.129-7.375c3.039,0.422,2.5,4.23,4.906,6.125c2.836,2.266,6.328,0.824,8.59,3.676c2.969,3.77,2.277,8.066,0,12.293c-1.676,3.055-3.836,4.137-6.723,5.742C21.316,55.438,13.34,49.555,9.867,41.289z"/>
    </symbol>

    <!-- Estrella (Star rating) -->
    <symbol id="icon-estrella1" viewBox="0 0 64 64">
      <path fill="currentColor" d="M62.799,23.737c-0.47-1.399-1.681-2.419-3.139-2.642l-16.969-2.593L35.069,2.265C34.419,0.881,33.03,0,31.504,0c-1.527,0-2.915,0.881-3.565,2.265l-7.623,16.238L3.347,21.096c-1.458,0.223-2.669,1.242-3.138,2.642c-0.469,1.4-0.115,2.942,0.916,4l12.392,12.707l-2.935,17.977c-0.242,1.488,0.389,2.984,1.62,3.854c1.23,0.87,2.854,0.958,4.177,0.228l15.126-8.365l15.126,8.365c0.597,0.33,1.254,0.492,1.908,0.492c0.796,0,1.592-0.242,2.269-0.72c1.231-0.869,1.861-2.365,1.619-3.854l-2.935-17.977l12.393-12.707C62.914,26.68,63.268,25.138,62.799,23.737z"/>
    </symbol>

    <!-- Blog 1 (Pluma/Pen) -->
    <symbol id="icon-blog1" viewBox="0 0 512 512">
      <path fill="currentColor" d="M512 0C460.22 3.56 96.44 38.2 71.01 287.61c-3.09 26.66-4.84 53.44-5.99 80.24l178.87-178.69c6.25-6.25 16.4-6.25 22.65 0s6.25 16.38 0 22.63L7.04 471.03c-9.38 9.37-9.38 24.57 0 33.94 9.38 9.37 24.59 9.37 33.98 0l57.13-57.07c42.09-.14 84.15-2.53 125.96-7.36 53.48-5.44 97.02-26.47 132.58-56.54H255.74l146.79-48.88c11.25-14.89 21.37-30.71 30.45-47.12h-81.14l106.54-53.21C500.29 132.86 510.19 26.26 512 0z"/>
    </symbol>

    <!-- Dificultad (Smiley face difficulty) -->
    <symbol id="icon-dificultad1" viewBox="0 0 504 512">
      <path fill="currentColor" d="M456 128c26.5 0 48-21 48-47 0-20-28.5-60.4-41.6-77.8-3.2-4.3-9.6-4.3-12.8 0C436.5 20.6 408 61 408 81c0 26 21.5 47 48 47zm0 32c-44.1 0-80-35.4-80-79 0-4.4.3-14.2 8.1-32.2C345 23.1 298.3 8 248 8 111 8 0 119 0 256s111 248 248 248 248-111 248-248c0-35.1-7.4-68.4-20.5-98.6-6.3 1.5-12.7 2.6-19.5 2.6zm-128-8c23.8 0 52.7 29.3 56 71.4.7 8.6-10.8 12-14.9 4.5l-9.5-17c-7.7-13.7-19.2-21.6-31.5-21.6s-23.8 7.9-31.5 21.6l-9.5 17c-4.1 7.4-15.6 4-14.9-4.5 3.1-42.1 32-71.4 55.8-71.4zm-160 0c23.8 0 52.7 29.3 56 71.4.7 8.6-10.8 12-14.9 4.5l-9.5-17c-7.7-13.7-19.2-21.6-31.5-21.6s-23.8 7.9-31.5 21.6l-9.5 17c-4.2 7.4-15.6 4-14.9-4.5 3.1-42.1 32-71.4 55.8-71.4zm80 280c-60.6 0-134.5-38.3-143.8-93.3-2-11.8 9.3-21.6 20.7-17.9C155.1 330.5 200 336 248 336s92.9-5.5 123.1-15.2c11.5-3.7 22.6 6.2 20.7 17.9-9.3 55-83.2 93.3-143.8 93.3z"/>
    </symbol>

    <!-- Duración 1 (Clock with arrow) -->
    <symbol id="icon-duracion1" viewBox="0 0 512 512">
      <path fill="currentColor" d="M504 255.531c.253 136.64-111.18 248.372-247.82 248.468-59.015.042-113.223-20.53-155.822-54.911-11.077-8.94-11.905-25.541-1.839-35.607l11.267-11.267c8.609-8.609 22.353-9.551 31.891-1.984C173.062 425.135 212.781 440 256 440c101.705 0 184-82.311 184-184 0-101.705-82.311-184-184-184-48.814 0-93.149 18.969-126.068 49.932l50.754 50.754c10.08 10.08 2.941 27.314-11.313 27.314H24c-8.837 0-16-7.163-16-16V38.627c0-14.254 17.234-21.393 27.314-11.314l49.372 49.372C129.209 34.136 189.552 8 256 8c136.81 0 247.747 110.78 248 247.531zm-180.912 78.784l9.823-12.63c8.138-10.463 6.253-25.542-4.21-33.679L288 256.349V152c0-13.255-10.745-24-24-24h-16c-13.255 0-24 10.745-24 24v135.651l65.409 50.874c10.463 8.137 25.541 6.253 33.679-4.21z"/>
    </symbol>

    <!-- Duración 2 (Clock) -->
    <symbol id="icon-duracion2" viewBox="0 0 24 24">
      <path fill="currentColor" d="M12,5a8.5,8.5,0,1,0,8.5,8.5A8.51,8.51,0,0,0,12,5Zm2.71,10.71a1,1,0,0,1-1.42,0l-2-2A1,1,0,0,1,11,13V10a1,1,0,0,1,2,0v2.59l1.71,1.7A1,1,0,0,1,14.71,15.71Z"/>
      <path fill="currentColor" d="M15,4H9A1,1,0,0,1,9,2h6a1,1,0,0,1,0,2Z"/>
    </symbol>

    <!-- Fecha (Calendar) -->
    <symbol id="icon-fecha1" viewBox="0 0 448 512">
      <path fill="currentColor" d="M436 160H12c-6.627 0-12-5.373-12-12v-36c0-26.51 21.49-48 48-48h48V12c0-6.627 5.373-12 12-12h40c6.627 0 12 5.373 12 12v52h128V12c0-6.627 5.373-12 12-12h40c6.627 0 12 5.373 12 12v52h48c26.51 0 48 21.49 48 48v36c0 6.627-5.373 12-12 12zM12 192h424c6.627 0 12 5.373 12 12v260c0 26.51-21.49 48-48 48H48c-26.51 0-48-21.49-48-48V204c0-6.627 5.373-12 12-12zm333.296 95.947l-28.169-28.398c-4.667-4.705-12.265-4.736-16.97-.068L194.12 364.665l-45.98-46.352c-4.667-4.705-12.266-4.736-16.971-.068l-28.397 28.17c-4.705 4.667-4.736 12.265-.068 16.97l82.601 83.269c4.667 4.705 12.265 4.736 16.97.068l142.953-141.805c4.705-4.667 4.736-12.265.068-16.97z"/>
    </symbol>

    <!-- Guías 1 (Medal 1) -->
    <symbol id="icon-guias1" viewBox="0 0 24 24">
      <path fill="currentColor" d="M15.34,17.44a4.85,4.85,0,0,0,.72-.71,3.08,3.08,0,0,1,.48-.48,2.86,2.86,0,0,1,.61-.31,6.64,6.64,0,0,0,1-.49,2.35,2.35,0,0,0,.6-.58,3.25,3.25,0,0,0,.52-1.61h0c0-.06,0-.11,0-.17a3.65,3.65,0,0,1,.1-.69,4.31,4.31,0,0,1,.31-.59,3.48,3.48,0,0,0,.63-1.8,3.48,3.48,0,0,0-.63-1.8,4.31,4.31,0,0,1-.31-.59,3.65,3.65,0,0,1-.1-.69,3.55,3.55,0,0,0-.54-1.79,3.51,3.51,0,0,0-1.55-1.07,2.86,2.86,0,0,1-.61-.31,3.59,3.59,0,0,1-.48-.48,3.52,3.52,0,0,0-1.5-1.15,3.47,3.47,0,0,0-1.85,0,3.1,3.1,0,0,1-1.42,0,3.47,3.47,0,0,0-1.85,0,3.52,3.52,0,0,0-1.5,1.15,3.08,3.08,0,0,1-.48.48,2.86,2.86,0,0,1-.61.31A3.51,3.51,0,0,0,5.3,5.13a3.55,3.55,0,0,0-.54,1.79,3.65,3.65,0,0,1-.1.69,4.31,4.31,0,0,1-.31.59A3.48,3.48,0,0,0,3.72,10a3.48,3.48,0,0,0,.63,1.8,4.31,4.31,0,0,1,.31.59,3.65,3.65,0,0,1,.1.69c0,.05,0,.11,0,.17a3.28,3.28,0,0,0,.52,1.62,2.35,2.35,0,0,0,.6.58,6.64,6.64,0,0,0,.95.49,2.86,2.86,0,0,1,.61.31,3.59,3.59,0,0,1,.48.48,4.85,4.85,0,0,0,.72.71,2.29,2.29,0,0,0,.78.44,2.76,2.76,0,0,0,1.2.08,5.74,5.74,0,0,0,.65-.13,3.1,3.1,0,0,1,1.42,0,5.74,5.74,0,0,0,.65.13h0a3.29,3.29,0,0,0,.45,0,2.42,2.42,0,0,0,.74-.11A2.29,2.29,0,0,0,15.34,17.44ZM12,14a4,4,0,1,1,4-4A4,4,0,0,1,12,14Z"/>
      <path fill="currentColor" d="M9.14,18.84a3.59,3.59,0,0,0,1,.14L8.89,21.45a1,1,0,0,1-.74.54H8a1,1,0,0,1-.72-.3L5.6,20,3,20a1.11,1.11,0,0,1-.86-.47,1,1,0,0,1,0-1l2-3.88a3.26,3.26,0,0,0,.41.78,3.67,3.67,0,0,0,.87.84,9,9,0,0,0,1.11.57c.08,0,.32.14.42.20s.18.19.30.32A5.85,5.85,0,0,0,8,18.20,3.39,3.39,0,0,0,9.14,18.84Zm12.71.69A1.05,1.05,0,0,1,21,20L18.4,20,16.72,21.70A1,1,0,0,1,16,22h-.15a1,1,0,0,1-.74-.54L13.88,19a3.54,3.54,0,0,0,1-.16,3.13,3.13,0,0,0,1.07-.59,6,6,0,0,0,.88-.86,2,2,0,0,1,.33-.34l.44-.20a8.68,8.68,0,0,0,1.07-.56,3.50,3.50,0,0,0,.85-.82,3.24,3.24,0,0,0,.42-.80l2,3.89A1,1,0,0,1,21.85,19.53Z"/>
    </symbol>

    <!-- Guías 2 (Medal 2) -->
    <symbol id="icon-guias2" viewBox="0 0 32 32">
      <g>
        <path fill="currentColor" d="M16,20c4.4,0,8-3.6,8-8s-3.6-8-8-8s-8,3.6-8,8S11.6,20,16,20z"/>
        <path fill="currentColor" d="M29.4,26.1l-3.5-7.3c1.3-1.9,2.1-4.3,2.1-6.8c0-6.6-5.4-12-12-12S4,5.4,4,12c0,2.6,0.8,4.9,2.2,6.9l-3.4,7.2c-0.1,0.3-0.1,0.7,0,0.9s0.5,0.5,0.8,0.5l4.7,0.3l3.2,3.5c0.2,0.2,0.5,0.3,0.7,0.3c0,0,0.1,0,0.2,0c0.3,0,0.6-0.3,0.8-0.6l2.9-6l2.9,6c0.1,0.3,0.4,0.5,0.8,0.6c0,0,0.1,0,0.2,0c0.3,0,0.5-0.1,0.7-0.3l3.2-3.5l4.7-0.3c0.3,0,0.6-0.2,0.8-0.5S29.5,26.4,29.4,26.1z M16,2c5.5,0,10,4.5,10,10c0,5.5-4.5,10-10,10S6,17.5,6,12C6,6.5,10.5,2,16,2z"/>
      </g>
    </symbol>

    <!-- User Avatar -->
    <symbol id="icon-user-avatar" viewBox="0 0 448 512">
      <path fill="currentColor" d="M224 256A128 128 0 1 0 224 0a128 128 0 1 0 0 256zm89.6 32h-11.2c-22.5 10.2-47.5 16-74.4 16s-51.9-5.8-74.4-16h-11.2C63.6 288 0 351.6 0 432c0 26.5 21.5 48 48 48h352c26.5 0 48-21.5 48-48 0-80.4-63.6-144-134.4-144z"/>
    </symbol>

    <!-- Región -->
    <symbol id="icon-region1" viewBox="0 0 496 512">
      <path fill="currentColor" d="M248 8C111.03 8 0 119.03 0 256s111.03 248 248 248 248-111.03 248-248S384.97 8 248 8zm160 215.5v6.93c0 5.87-3.32 11.24-8.57 13.86l-15.39 7.7a15.485 15.485 0 0 1-15.53-.97l-18.21-12.14a15.52 15.52 0 0 0-13.5-1.81l-2.65.88c-9.7 3.23-13.66 14.79-7.99 23.3l13.24 19.86c2.87 4.31 7.71 6.9 12.89 6.9h8.21c8.56 0 15.5 6.94 15.5 15.5v11.34c0 3.35-1.09 6.62-3.1 9.3l-18.74 24.98c-1.42 1.9-2.39 4.1-2.83 6.43l-4.3 22.83c-.62 3.29-2.29 6.29-4.76 8.56a159.608 159.608 0 0 0-25 29.16l-13.03 19.55a27.756 27.756 0 0 1-23.09 12.36c-10.51 0-20.12-5.94-24.82-15.34a78.902 78.902 0 0 1-8.33-35.29V367.5c0-8.56-6.94-15.5-15.5-15.5h-25.88c-14.49 0-28.38-5.76-38.63-16a54.659 54.659 0 0 1-16-38.63v-14.06c0-17.19 8.1-33.38 21.85-43.7l27.58-20.69a54.663 54.663 0 0 1 32.78-10.93h.89c8.48 0 16.85 1.97 24.43 5.77l14.72 7.36c3.68 1.84 7.93 2.14 11.83.84l47.31-15.77c6.33-2.11 10.6-8.03 10.6-14.7 0-8.56-6.94-15.5-15.5-15.5h-10.09c-4.11 0-8.05-1.63-10.96-4.54l-6.92-6.92a15.493 15.493 0 0 0-10.96-4.54H199.5c-8.56 0-15.5-6.94-15.5-15.5v-4.4c0-7.11 4.84-13.31 11.74-15.04l14.45-3.61c3.74-.94 7-3.23 9.14-6.44l8.08-12.11c2.87-4.31 7.71-6.9 12.89-6.9h24.21c8.56 0 15.5-6.94 15.5-15.5v-21.7C359.23 71.63 422.86 131.02 441.93 208H423.5c-8.56 0-15.5 6.94-15.5 15.5z"/>
    </symbol>

    <!-- Modalidad (Settings gear) -->
    <symbol id="icon-modalidad1" viewBox="0 0 8 8">
      <path fill="currentColor" d="M3.5 0l-.5 1.19c-.1.03-.19.08-.28.13l-1.19-.5-.72.72.5 1.19c-.05.1-.09.18-.13.28l-1.19.5v1l1.19.5c.04.1.08.18.13.28l-.5 1.19.72.72 1.19-.5c.09.04.18.09.28.13l.5 1.19h1l.5-1.19c.09-.04.19-.08.28-.13l1.19.5.72-.72-.5-1.19c.04-.09.09-.19.13-.28l1.19-.5v-1l-1.19-.5c-.03-.09-.08-.19-.13-.28l.5-1.19-.72-.72-1.19.5c-.09-.04-.19-.09-.28-.13l-.5-1.19h-1zm.5 2.5c.83 0 1.5.67 1.5 1.5s-.67 1.5-1.5 1.5-1.5-.67-1.5-1.5.67-1.5 1.5-1.5z"/>
    </symbol>

    <!-- Admin Dashboard -->
    <symbol id="icon-admin-dashboard" viewBox="0 0 512 512">
      <path fill="currentColor" d="M503.52,241.48c.12-1.56.48-3.1.48-4.68,0-26.51-21.49-48-48-48H56c-26.51,0-48,21.49-48,48V464c0,26.51,21.49,48,48,48H456c26.51,0,48-21.49,48-48V241.48ZM192,416H64V256H192V416Zm320-272H256V416H512V144Z"/>
    </symbol>
  </defs>
</svg>
